PathFileType	4	(X/Y/Z)	C:\Users\°ÂÌØÂü\Desktop\20210112\bx_y_5_502-Unnamed.trc
DataRate	CameraRate	NumFrames	NumMarkers	Units	OrigDataRate	OrigDataStartFrame	OrigNumFrames
50.00	50.00	       5	0	mm	50.00	112	       447
Frame#	Time	
		

112	2.220	-478.78757	287.36395	1353.25415				-843.24701	280.58633	735.22076	-739.76013	-8.05035	805.33948	-811.56525	280.09698	868.16516	-952.59174	92.53813	1065.39771	-793.36877	144.49014	566.43250	-844.35242	250.08714	622.53400				-463.56427	-54.53735	1343.05249	-832.60071	246.47211	563.28711	-856.31226	257.64117	484.79395	-768.85181	206.95920	534.18640	-726.75745	71.43697	221.06042	-719.86035	157.91241	221.81505	-777.24188	226.39755	200.72568	-882.60834	296.06894	144.52896	-677.40131	52.31990	162.92444	-676.63715	175.75621	161.68912	-597.63416	225.84546	173.52386	-667.65094	301.26935	157.17564	-629.38251	309.30255	160.54170	-563.79987	262.19620	165.17125	-528.00970	303.83130	146.32957	-328.24890	120.91719	1612.15552	-815.11829	-59.55414	697.13721	-517.91473	-72.55857	142.43636	-562.83502	-40.14478	162.44914	-604.43481	17.95228	167.81436							-797.88062	51.74129	172.83401	-799.68555	175.61203	180.91765	-841.51660	-41.81589	472.63025	-666.36127	-70.37908	159.85963	-774.21490	-10.83621	201.37505	-875.64880	-79.04969	141.18465	-810.56677	-33.52802	607.01318	-624.16284	-80.42082	157.89883	-806.91150	-70.29458	850.94171				-813.58289	-30.85044	559.05341							-753.93079	11.55821	524.38422	
113	2.240	-484.65567	288.06580	1362.74695	-752.99823	214.07449	1031.67346	-840.70624	280.32819	735.34918	-737.71484	-7.42046	805.94250	-809.13776	280.41412	868.58636	-951.20532	93.14658	1064.83582	-791.77240	144.99139	567.10681	-842.66602	250.33850	622.97101	-745.22400	214.85594	818.53259	-469.16150	-54.98529	1351.60925	-830.95837	247.20523	564.19305	-855.35150	257.41672	484.84357	-767.79742	207.06709	534.33484	-726.75745	71.43697	221.06042	-719.73743	157.86752	221.89409	-777.19006	226.49786	200.86691	-882.57751	296.05408	144.51141	-677.12787	52.21818	162.85362	-676.75098	175.99287	161.45346	-597.42834	226.16846	173.79059	-667.45300	301.22147	157.03621	-629.46124	309.46750	160.47549	-563.73193	262.24295	165.09920	-528.17102	303.78558	146.18231	-338.86667	119.99519	1624.14929	-812.84326	-58.28973	697.59381	-517.92303	-72.91223	142.16316	-562.81696	-40.03115	162.50510	-604.49762	17.79524	168.09866							-797.82776	51.94928	172.83554	-799.45038	175.44875	181.18051	-840.17108	-41.45527	472.99606	-666.45844	-70.11427	159.42201	-774.31415	-10.46714	201.57133	-875.83032	-78.95947	141.07770	-809.47571	-32.58309	607.34869	-624.37683	-80.56259	158.00464	-804.86951	-69.49635	851.45007				-812.33801	-30.41970	559.94806							-752.51202	12.26081	524.77460	
114	2.260	-490.18082	288.10318	1371.67200				-839.03052	281.20532	736.10944	-735.94189	-6.55376	806.34564	-806.61584	281.10617	869.27612	-949.96588	93.99001	1064.11829	-790.44336	145.62985	566.80597	-841.19690	250.96388	623.48486	-743.16797	215.35175	818.80615	-475.26227	-55.54481	1360.37109	-829.82080	247.32272	564.10107	-854.06360	258.08716	485.14795	-766.36621	207.57048	534.57434	-726.54712	71.18464	221.26414	-719.69238	157.77330	221.78197	-777.01947	226.76990	201.11328	-882.93030	295.70401	144.25978	-677.40131	52.31990	162.92444	-676.63715	175.75621	161.68912	-597.43280	226.26810	173.79813	-667.45105	301.21671	157.22340	-629.38251	309.30255	160.54170	-563.60400	262.47690	164.86743	-528.00122	303.99200	146.33350	-349.66830	118.84840	1635.75159	-811.00940	-57.45861	698.45160	-518.03363	-73.24407	142.72896	-562.80090	-40.22687	162.44812	-604.49384	17.77683	168.37468							-797.81000	52.03897	172.94652	-799.44513	175.36603	181.15347	-839.74371	-41.11234	473.46002	-666.37024	-70.26784	159.65495	-774.31415	-10.46714	201.57133	-876.02472	-78.90071	141.04463	-808.01099	-31.93918	607.62024	-624.46094	-80.67562	158.30974	-803.05554	-68.15660	851.46655				-811.12732	-29.73279	559.87720							-751.08881	12.49676	524.87634	
115	2.280	-495.58643	288.45773	1380.15649	-749.44714	215.26482	1036.29395	-836.34619	282.04544	737.00287	-733.33313	-5.27323	805.79529	-804.47852	280.59366	868.91510	-948.11414	95.35113	1063.06006	-789.39362	146.32484	566.93066	-839.42889	250.97070	623.89032	-740.58929	216.12645	819.39807	-480.97256	-56.74446	1368.96680	-828.27368	248.13538	564.42291	-852.97137	258.55499	485.73792	-765.33868	207.77324	534.39581	-726.34094	71.44411	221.22299	-719.90363	157.79622	221.51318	-777.08649	226.48361	200.83643	-883.11609	295.69238	144.30963	-677.26910	52.39403	163.06447	-676.63715	175.75621	161.68912	-597.48425	226.10997	173.62927	-667.35016	301.15552	157.25478	-629.51544	309.50836	160.52972	-563.63531	262.40326	164.97807	-528.10175	304.03253	146.09564	-360.47116	118.33907	1647.45898	-809.06030	-56.07119	698.53253	-517.95361	-72.76327	142.34431	-562.83942	-40.24427	162.38065	-604.55176	17.60601	168.65555							-797.79840	52.12122	172.68880	-799.42261	175.39304	181.21013	-839.35986	-41.10252	473.92447	-666.59912	-70.42839	159.68259	-774.28174	-10.23694	201.93544	-875.94904	-79.04231	141.03226	-806.40967	-31.68834	607.96503	-624.33063	-80.56194	158.29419	-800.78125	-67.40778	852.03387				-810.05872	-29.41976	560.36273							-750.39594	13.01730	524.59271	
116	2.300	-501.58929	288.55026	1388.76880	-747.30475	216.59593	1038.70081	-833.97217	282.49246	737.18854	-732.09393	-4.57656	806.63837	-801.31921	282.18787	869.77698	-946.54773	96.09067	1062.49634	-787.70514	147.01604	567.50098	-837.69031	251.85652	624.46863	-737.89832	216.79300	819.58398	-487.51633	-57.06489	1377.52173	-826.82208	248.55952	564.41138	-851.83636	258.73087	485.46930	-764.01556	208.52519	534.45215	-726.50366	71.69349	220.89708	-719.62177	158.06592	221.83134	-777.02722	226.90369	200.67638	-883.04608	295.60281	144.36665	-676.99561	52.29231	162.99364	-676.69287	175.88708	161.47391	-597.48175	226.22293	173.92340	-667.57544	301.31464	157.00226	-629.60034	309.31580	160.47090	-563.78430	262.45084	165.02379	-528.05493	303.86139	146.26524	-371.31833	117.78589	1658.77856	-807.41400	-55.79901	699.48187	-517.89764	-73.14607	142.55914	-562.80524	-40.32635	162.37962	-604.55176	17.60601	168.65555							-797.68719	52.56580	172.73770	-799.42261	175.39304	181.21013	-837.89752	-39.69781	474.12048	-666.56635	-70.13220	159.52991	-774.26422	-10.01937	201.64142	-875.97748	-78.88188	141.21204	-805.68091	-30.99039	608.19049	-624.37012	-80.60128	158.22885	-798.59015	-67.17668	852.96582				-808.36084	-29.35638	561.16315							-749.72589	13.49897	524.33405	
